Coordinates
version=1
nRows=11
nColumns=60
inDegrees=yes

Units are S.I. units (second, meters, Newtons, ...)
If the header above contains a line with 'inDegrees', this indicates whether rotational values are in degrees (yes) or radians (no).

endheader
time	pelvis_tilt	pelvis_list	pelvis_rotation	pelvis_tx	pelvis_ty	pelvis_tz	hip_flexion_r	hip_adduction_r	hip_rotation_r	knee_angle_r_beta	knee_angle_r	ankle_angle_r	subtalar_angle_r	mtp_angle_r	hip_flexion_l	hip_adduction_l	hip_rotation_l	knee_angle_l_beta	knee_angle_l	ankle_angle_l	subtalar_angle_l	mtp_angle_l	L5_S1_Flex_Ext	L5_S1_Lat_Bending	L5_S1_axial_rotation	L4_L5_Flex_Ext	L4_L5_Lat_Bending	L4_L5_axial_rotation	L3_L4_Flex_Ext	L3_L4_Lat_Bending	L3_L4_axial_rotation	L2_L3_Flex_Ext	L2_L3_Lat_Bending	L2_L3_axial_rotation	L1_L2_Flex_Ext	L1_L2_Lat_Bending	L1_L2_axial_rotation	L1_T12_Flex_Ext	L1_T12_Lat_Bending	L1_T12_axial_rotation	Abs_r3	Abs_r2	Abs_r1	Abs_t1	Abs_t2	arm_flex_r	arm_add_r	arm_rot_r	elbow_flex_r	pro_sup_r	wrist_flex_r	wrist_dev_r	arm_flex_l	arm_add_l	arm_rot_l	elbow_flex_l	pro_sup_l	wrist_flex_l	wrist_dev_l
    105.05000000	     -0.37360403	      9.16488766	     91.30551757	      0.39626868	      0.93994365	      0.31816172	      2.40057012	     -5.83414759	      1.06472240	      0.24692370	    -14.14768572	      6.86870897	      0.00000000	      0.00000000	      2.26720346	     -4.68473243	     -2.06028871	      0.21889992	    -12.54204143	      7.20878195	      0.00000000	      0.00000000	     -7.45606081	     -0.00895536	     -0.18359272	    -13.84665053	     -0.01191063	     -0.19506726	    -12.24956230	     -0.02177407	     -0.19506726	     -8.52153190	     -0.02177407	     -0.16064363	     -6.92369807	     -0.01826178	     -0.14916908	     -4.26039315	     -0.01387186	     -0.13769454	    -53.25789674	     -0.10130487	     -1.02108761	      0.00000000	      0.00000000	     16.03793254	    -26.92994503	      6.62597557	     82.52644823	     71.07385044	     10.80470278	      7.04084986	     18.20352480	    -24.48204932	     12.26381075	     79.02608330	     68.56580961	      7.88707121	      0.79614358
    105.06000000	     -0.29571564	      8.98190973	     91.08401578	      0.39700092	      0.93959153	      0.32045267	      2.89702571	     -5.71130117	      1.34541358	      0.24982510	    -14.31392381	      6.74134181	      0.00000000	      0.00000000	      2.64281622	     -4.80439979	     -2.30661741	      0.22038012	    -12.62685082	      7.15872345	      0.00000000	      0.00000000	     -7.54385872	     -0.00916801	     -0.12989993	    -14.00970002	     -0.01219345	     -0.13801868	    -12.39380548	     -0.02229110	     -0.13801868	     -8.62187613	     -0.02229110	     -0.11366244	     -7.00522720	     -0.01869541	     -0.10554370	     -4.31056087	     -0.01420125	     -0.09742495	    -53.88502842	     -0.10371037	     -0.72246446	      0.00000000	      0.00000000	     16.85205036	    -27.05302032	      7.37423174	     81.49338252	     70.98267611	     10.94646431	      6.98451224	     19.12264708	    -24.67547081	     13.20686557	     78.06483860	     68.50618272	      7.90501942	      0.76604317
    105.07000000	     -0.17371874	      8.94219003	     90.86280494	      0.39790772	      0.93947478	      0.32298149	      3.30582149	     -5.50039116	      1.75372890	      0.25490735	    -14.60511540	      6.53622381	      0.00000000	      0.00000000	      2.90209673	     -4.97845031	     -2.28062061	      0.22334608	    -12.79678757	      7.04828188	      0.00000000	      0.00000000	     -7.68428538	     -0.01097404	     -0.07548214	    -14.27048638	     -0.01459547	     -0.08019977	    -12.62451245	     -0.02668228	     -0.08019977	     -8.78236976	     -0.02668228	     -0.06604687	     -7.13562740	     -0.02237826	     -0.06132924	     -4.39080067	     -0.01699879	     -0.05661160	    -54.88808203	     -0.12414051	     -0.41980902	      0.00000000	      0.00000000	     17.58862288	    -27.03608673	      7.67686422	     80.80898212	     70.92363950	     10.99559799	      6.95091699	     19.97946833	    -24.75902396	     13.58109691	     77.58817639	     68.47673196	      7.93320659	      0.74681832
    105.08000000	     -0.04430018	      8.86053183	     90.54091509	      0.39893691	      0.93929142	      0.32554865	      3.76969537	     -5.28752679	      2.19608530	      0.25925076	    -14.85397418	      6.32504163	      0.00000000	      0.00000000	      3.16250895	     -5.17648107	     -2.55880735	      0.22524724	    -12.90571643	      6.99092199	      0.00000000	      0.00000000	     -7.81047829	     -0.01356333	     -0.00384849	    -14.50483923	     -0.01803922	     -0.00408902	    -12.83183478	     -0.03297787	     -0.00408902	     -8.92659564	     -0.03297787	     -0.00336743	     -7.25281014	     -0.02765833	     -0.00312690	     -4.46290730	     -0.02100959	     -0.00288637	    -55.78946539	     -0.15343105	     -0.02140417	      0.00000000	      0.00000000	     18.56939464	    -27.10553044	      8.34409045	     79.92638950	     70.82725842	     11.08690343	      6.88812371	     21.06863276	    -24.92672609	     14.41027265	     76.81093925	     68.43836233	      8.02196519	      0.74775029
    105.09000000	      0.03623751	      8.66327654	     90.24232007	      0.39998230	      0.93890536	      0.32808752	      4.28660330	     -5.12119155	      2.59759855	      0.26122441	    -14.96705633	      6.18420858	      0.00000000	      0.00000000	      3.52796252	     -5.33265027	     -2.93398360	      0.22586003	    -12.94082657	      6.93907038	      0.00000000	      0.00000000	     -7.91440299	     -0.02367434	      0.06720026	    -14.69783778	     -0.03148688	      0.07140028	    -13.00257266	     -0.05756180	      0.07140028	     -9.04537117	     -0.05756180	      0.05880023	     -7.34931461	     -0.04827672	      0.05460021	     -4.52228987	     -0.03667156	      0.05040020	    -56.53178908	     -0.26780890	      0.37374771	      0.00000000	      0.00000000	     19.54852759	    -27.31265043	      9.18971042	     78.92985644	     70.55301276	     11.25007387	      6.63193551	     22.41378828	    -25.20878730	     15.61368386	     75.73347566	     68.30072423	      8.21296092	      0.67953207
    105.10000000	      0.11409148	      8.54696073	     90.03971318	      0.40082234	      0.93862083	      0.33077597	      4.77151692	     -4.96289377	      2.97118230	      0.26601053	    -15.24128094	      5.97344904	      0.00000000	      0.00000000	      3.86700235	     -5.45874232	     -2.89964537	      0.22846340	    -13.08998831	      6.81077936	      0.00000000	      0.00000000	     -8.05565568	     -0.02651819	      0.11908618	    -14.96015816	     -0.03526919	      0.12652906	    -13.23463671	     -0.06447633	      0.12652906	     -9.20680887	     -0.06447633	      0.10420041	     -7.48048186	     -0.05407589	      0.09675752	     -4.60300165	     -0.04107668	      0.08931463	    -57.54074294	     -0.29997906	      0.66232160	      0.00000000	      0.00000000	     20.49788697	    -27.32454762	      9.56116090	     78.28426075	     70.41950511	     11.31431722	      6.50396603	     23.54331790	    -25.34066562	     16.15028089	     75.15914235	     68.23006317	      8.32699152	      0.64637264
    105.11000000	      0.14088920	      8.26587198	     89.85683624	      0.40154067	      0.93803777	      0.33331857	      5.37656563	     -4.87675730	      3.18201847	      0.26854094	    -15.38626259	      5.84671696	      0.00000000	      0.00000000	      4.34651756	     -5.54362610	     -3.15568635	      0.22930503	    -13.13821042	      6.71486895	      0.00000000	      0.00000000	     -8.14713212	     -0.03456928	      0.16711719	    -15.13003905	     -0.04597714	      0.17756201	    -13.38492335	     -0.08405174	      0.17756201	     -9.31135729	     -0.08405174	      0.14622754	     -7.56542688	     -0.07049367	      0.13578271	     -4.65527129	     -0.05354781	      0.12533789	    -58.19414999	     -0.39105458	      0.92945565	      0.00000000	      0.00000000	     21.63171648	    -27.54280515	     10.53973781	     77.18448802	     70.08969181	     11.47778939	      6.17107670	     25.10825197	    -25.62742981	     17.60367979	     73.92255632	     68.03000917	      8.62187263	      0.56969456
    105.12000000	      0.14732248	      8.07224305	     89.84592165	      0.40193951	      0.93753711	      0.33594630	      5.90574564	     -4.82043151	      3.40376446	      0.27328108	    -15.65785251	      5.66846912	      0.00000000	      0.00000000	      4.82187577	     -5.57697499	     -2.96755234	      0.23243993	    -13.31782717	      6.52638144	      0.00000000	      0.00000000	     -8.28041123	     -0.03473765	      0.18293999	    -15.37755170	     -0.04620108	      0.19437373	    -13.60388761	     -0.08446113	      0.19437373	     -9.46368200	     -0.08446113	      0.16007249	     -7.68918987	     -0.07083702	      0.14863874	     -4.73142698	     -0.05380862	      0.13720499	    -59.14614939	     -0.39295927	      1.01745732	      0.00000000	      0.00000000	     22.65278121	    -27.58179828	     10.90099931	     76.55101133	     69.92118867	     11.54488839	      5.99699474	     26.37593230	    -25.71952965	     18.18551235	     73.24820049	     67.91129405	      8.76218393	      0.51123610
    105.13000000	      0.10492304	      7.57050213	     89.89664692	      0.40208557	      0.93650006	      0.33843154	      6.73247547	     -4.86310564	      3.33309881	      0.27688916	    -15.86458039	      5.64838720	      0.00000000	      0.00000000	      5.62177798	     -5.54421850	     -2.93584062	      0.23445224	    -13.43312390	      6.42321243	      0.00000000	      0.00000000	     -8.33522804	     -0.02291855	      0.23650686	    -15.47935200	     -0.03048167	      0.25128854	    -13.69394615	     -0.05572416	      0.25128854	     -9.52633213	     -0.05572416	      0.20694350	     -7.74009276	     -0.04673550	      0.19216182	     -4.76274930	     -0.03550083	      0.17738014	    -59.53770039	     -0.25925919	      1.31538019	      0.00000000	      0.00000000	     23.51030226	    -27.91708339	     11.59712407	     75.50922245	     68.03828255	     12.22040635	      3.65109943	     28.32644919	    -25.85558099	     20.24175246	     71.51969915	     66.24326273	      9.82630542	     -1.00484503
    105.14000000	      0.05982355	      7.26762085	     90.08470780	      0.40197935	      0.93571210	      0.34087756	      7.31944603	     -4.92985443	      3.12689676	      0.28074148	    -16.08530191	      5.53830317	      0.00000000	      0.00000000	      6.24210170	     -5.48506241	     -2.65640398	      0.23711622	    -13.58575864	      6.19464834	      0.00000000	      0.00000000	     -8.43618316	     -0.01528014	      0.20583575	    -15.66683575	     -0.02032259	      0.21870049	    -13.85980532	     -0.03715214	      0.21870049	     -9.64171374	     -0.03715214	      0.18010628	     -7.83383969	     -0.03115927	      0.16724155	     -4.82043506	     -0.02366894	      0.15437681	    -60.25881273	     -0.17285202	      1.14479670	      0.00000000	      0.00000000	     24.83712400	    -28.00518626	     12.44800659	     74.50083151	     68.02122288	     12.34661462	      3.59504704	     29.73221137	    -26.00743003	     21.11467947	     70.58122781	     66.16481968	      9.98144744	     -1.09688471
    105.15000000	      0.00984425	      6.84788691	     90.34876128	      0.40175816	      0.93467021	      0.34328675	      8.03131685	     -5.01423257	      2.88678652	      0.28523634	    -16.34283839	      5.49208680	      0.00000000	      0.00000000	      7.02611522	     -5.40652083	     -2.31123865	      0.24048943	    -13.77902908	      6.00117547	      0.00000000	      0.00000000	     -8.51687134	     -0.00065905	      0.16921279	    -15.81668176	     -0.00087654	      0.17978859	    -13.99236792	     -0.00160242	      0.17978859	     -9.73393225	     -0.00160242	      0.14806119	     -7.90876672	     -0.00134394	      0.13748539	     -4.86654028	     -0.00102087	      0.12690959	    -60.83516028	     -0.00745533	      0.94111075	      0.00000000	      0.00000000	     26.13281491	    -28.05712393	     13.20359419	     73.49209325	     67.88284287	     12.50871774	      3.44856734	     31.20688558	    -26.11016583	     22.09555568	     69.50313059	     65.94901713	     10.16660167	     -1.26311050
